<svg xmlns="http://www.w3.org/2000/svg" version="1.1" xmlns:xlink="http://www.w3.org/1999/xlink" xmlns:svgjs="http://svgjs.dev/svgjs" width="100%" height="100%" viewBox="0 0 1000 600"><rect width="1000" height="600" x="0" y="0" fill="#1b74e9"/><g><circle r="166.66666666666666" cx="288.9643198649088" cy="311.1865314317879" fill="#e91b93" transform="matrix(1.0220966856219245,0,0,1.0220966856219245,0,-18.062715954949383)"/><path d="M230.3921348526642 386.18653933802193L230.3921348526642 386.18653933802193Q216.83056383723596 386.18653933802193 191.22016064763073 384.08993638260347L191.22016064763073 384.08993638260347L193.50253854846602 337.6462000283972L191.22016064763073 252.24280369249075L242.22865280350766 252.24280369249075Q268.0248309385297 252.24280369249075 282.5683552368755 267.71520271792065Q297.08534025730455 283.18760174335057 297.08534025730455 310.70883294295743L297.08534025730455 310.70883294295743Q297.08534025730455 345.5018262917372 279.1182491077059 365.8309131759212Q261.1511579581072 386.18653933802193 230.3921348526642 386.18653933802193ZM235.35497982308513 272.8903619116751L235.35497982308513 272.8903619116751Q222.7488228126577 272.8903619116751 217.60020289681995 273.0761368570919L217.60020289681995 273.0761368570919L215.6893748868183 334.408408122561L217.01633878265278 365.35320617342086Q233.07260192224985 366.5209344017552 238.6193110068379 366.5209344017552L238.6193110068379 366.5209344017552Q253.69362086351748 366.5209344017552 262.3985040201916 354.2863272821613Q271.1033871768657 342.05172016256756 271.1033871768657 318.75023415171427Q271.1033871768657 295.42220886294433 262.5842789656084 284.14301574835133Q254.09171003226783 272.8903619116751 235.35497982308513 272.8903619116751ZM313.88470317856894 291.60055284294106L339.49510636817416 286.823482817937L337.21272846733893 334.408408122561L339.30933142275734 379.31286635759943L313.6989282331521 384.08993638260347L316.0078454119041 337.6462000283972L313.88470317856894 291.60055284294106ZM312.5577392827345 258.8245446158297Q312.5577392827345 252.42857863790758 317.52058425315533 247.3595765558199Q322.4834292235763 242.31711375164892 328.98555231316516 242.31711375164892Q335.4876754027541 242.31711375164892 338.9377815319237 245.8468377145686Q342.3613483831766 249.3765616774883 342.3613483831766 256.43600960332765Q342.3613483831766 263.5219968070837 337.50466052442243 268.5909988891714Q332.6214333877516 273.6334616933424 326.2254674098295 273.6334616933424Q319.8295014319074 273.6334616933424 316.1936203573209 269.44025578250546Q312.5577392827345 265.24704987166854 312.5577392827345 258.8245446158297ZM360.5142144781921 240.96361057789778L386.70848178196457 236.1865405528937L384.21378965779576 334.408408122561L386.3103926132142 379.31286635759943L360.5142144781921 384.08993638260347L362.82313165694416 337.6462000283972L360.5142144781921 240.96361057789778Z " fill="#1b74e9" transform="matrix(1.0220966856219245,0,0,1.0220966856219245,0,-18.062715954949383)"/><path d="M582.8319671720218 386.1865390467609L582.8319671720218 386.1865390467609Q567.6447275948296 386.1865390467609 538.964324087999 383.8386096405022L538.964324087999 383.8386096405022L541.5202978720274 331.8275151980632L538.964324087999 236.1865426747669L596.0873660984948 236.1865426747669Q624.9758139830951 236.1865426747669 641.2627166999275 253.513667280448Q657.5198987913641 270.84079188612907 657.5198987913641 301.6610804214487L657.5198987913641 301.6610804214487Q657.5198987913641 340.62482031518437 637.3990353984891 363.39081936827483Q617.2781720056141 386.1865390467609 582.8319671720218 386.1865390467609ZM588.3897241210138 259.3091892326055L588.3897241210138 259.3091892326055Q574.2724270580661 259.3091892326055 568.5066257313042 259.51723361037523L568.5066257313042 259.51723361037523L566.3667407028154 328.2015988997904L567.8527719725994 362.85584811115257Q585.8337503369854 364.16355562856245 592.0453610446824 364.16355562856245L592.0453610446824 364.16355562856245Q608.9266762694283 364.16355562856245 618.6750413992111 350.4623473211542Q628.423406528994 336.76113901374606 628.423406528994 310.66642991633955Q628.423406528994 284.5420001935373 618.8830857769809 271.9107344003736Q609.3724856503635 259.3091892326055 588.3897241210138 259.3091892326055ZM714.8509851796297 362.0236706000735L714.8509851796297 362.0236706000735Q721.0625958873268 362.0236706000735 727.9280603537286 358.81384305734014Q734.7638041947349 355.6040155146068 738.6274854961732 352.3941879718734L738.6274854961732 352.3941879718734L742.4614461722159 349.18436042914004L752.2989731781857 361.1617724635988Q750.1590881496968 364.7876887618718 745.6712737149493 369.51326819978476Q741.1834592802016 374.20912701230213 736.5767623438713 377.5378370566182Q731.970065407541 380.8368264755386 724.3913059316428 383.5116827611498Q716.7828258303489 386.1865390467609 708.6690950973284 386.1865390467609L708.6690950973284 386.1865390467609Q691.3122498662516 386.1865390467609 680.4047803460373 373.0203019964749Q669.497310825823 359.88378557158467 669.497310825823 339.10906842000475L669.497310825823 339.10906842000475Q669.497310825823 313.01435932259824 684.6845504030151 293.30958468526273Q699.8717899802073 273.63453067332296 720.200697750852 273.63453067332296L720.200697750852 273.63453067332296Q735.8337467089793 273.63453067332296 744.5121693245178 282.4021151650484Q753.1608713146604 291.1696996567738 753.1608713146604 307.010792992671L753.1608713146604 307.010792992671Q753.1608713146604 316.43223124310134 749.9510437719271 328.4096432775601L749.9510437719271 328.4096432775601L745.6712737149493 332.89745771230776L692.1741480027263 337.8310815279905Q695.8297849263948 362.0236706000735 714.8509851796297 362.0236706000735ZM714.8509851796297 295.68723471691715L714.8509851796297 295.68723471691715Q705.459267554595 295.68723471691715 699.0396124691283 303.26599419281536Q692.6199573836615 310.8744742941093 691.550014869417 322.64384195079833L691.550014869417 322.64384195079833L727.9280603537286 318.1560275160507Q728.5521934870378 313.222403700368 728.5521934870378 310.0125761576346L728.5521934870378 310.0125761576346Q728.5521934870378 295.68723471691715 714.8509851796297 295.68723471691715ZM800.2383419414166 322.19803256986313L808.173748922063 357.0900467843908L810.9377670838612 357.0900467843908L818.011275928033 327.7855101442509L829.5725992069522 274.9125175653372L856.0833970598983 278.1223451080706L840.0342593462314 331.203382064754L826.5708160419886 381.2826358564738L789.9847261799073 384.49246339920717L777.3534603867436 332.48136895676816L761.9284558063858 280.4702745143293L791.0546686941517 275.12056194310696L800.2383419414166 322.19803256986313Z " fill="#e91b93" transform="matrix(1.0220966856219245,0,0,1.0220966856219245,0,-18.062715954949383)"/></g></svg>